<?xml version="1.0" encoding="utf-8"?>
<!-- Generator: Adobe Illustrator 16.0.0, SVG Export Plug-In . SVG Version: 6.00 Build 0)  -->
<!DOCTYPE svg PUBLIC "-//W3C//DTD SVG 1.1//EN" "http://www.w3.org/Graphics/SVG/1.1/DTD/svg11.dtd">
<svg version="1.1"
	 id="svg2" sodipodi:docname="Scotch_regions.recolor_01.svg" inkscape:version="0.44.1" sodipodi:version="0.32" sodipodi:docbase="/var/home/ilmari/Misc" xmlns:cc="http://web.resource.org/cc/" xmlns:sodipodi="http://sodipodi.sourceforge.net/DTD/sodipodi-0.dtd" xmlns:rdf="http://www.w3.org/1999/02/22-rdf-syntax-ns#" xmlns:inkscape="http://www.inkscape.org/namespaces/inkscape" xmlns:dc="http://purl.org/dc/elements/1.1/" xmlns:svg="http://www.w3.org/2000/svg"
	 xmlns="http://www.w3.org/2000/svg" xmlns:xlink="http://www.w3.org/1999/xlink" x="0px" y="0px" width="700px" height="700px"
	 viewBox="0 0 700 700" enable-background="new 0 0 700 700" xml:space="preserve">
<sodipodi:namedview  height="700px" width="700px" inkscape:window-width="1272" inkscape:window-y="0" inkscape:pageopacity="0.0" inkscape:pageshadow="2" inkscape:window-x="0" inkscape:current-layer="layer1" inkscape:document-units="px" inkscape:window-height="948" guidetolerance="10" inkscape:zoom="0.25" borderopacity="1.0" id="base" objecttolerance="10" pagecolor="#ffffff" gridtolerance="10000" bordercolor="#666666" inkscape:cy="291.86439" inkscape:cx="310.34534">
	</sodipodi:namedview>
<g id="layer1" transform="translate(-103.0381,132.7)" inkscape:groupmode="layer" inkscape:label="Layer 1">
	<rect id="rect2133" x="103.038" y="-132.7" fill="#FFFFFF" width="700" height="699.979"/>
	<path id="path4055" sodipodi:nodetypes="cssssssssssssssssssscsssccccsssssssc" fill="#C0C0C0" d="M651.106,447.591
		c-0.16,0.587-0.324,1.203-0.517,1.656c-0.649,1.546-1.298,2.71-1.832,3.312c-1.377,1.555-2.794,4.383-3.148,6.283
		c-0.202,1.08-1.52,2.499-3.437,3.997c-1.918,1.499-4.445,3.052-7.215,4.513c-2.768,1.46-5.777,2.804-8.531,3.771
		c-2.754,0.966-5.281,1.583-7.156,1.599c-1.513,0.013-3.536,0.42-5.612,1.085c-2.075,0.665-4.202,1.574-5.84,2.57
		c-2.291,1.394-3.779,2.6-4.695,3.998c-0.916,1.396-1.26,2.979-1.26,5.083c0,1.996-0.347,3.605-1.146,4.969
		s-2.054,2.462-3.894,3.598c-2.771,1.712-7.514,5.441-10.535,8.226c-1.512,1.392-3.851,3.076-6.413,4.684
		c-2.562,1.606-5.354,3.122-7.729,4.169s-4.798,2.381-6.813,3.713c-2.017,1.331-3.611,2.624-4.295,3.599
		c-0.541,0.771-1.392,1.558-2.462,2.228c-0.422,0.265-0.934,0.477-1.432,0.687c1.477,1.729,1.208,2.396-3.093,3.255
		c-4.267,0.852-5.84,2.348-6.757,6.511c-0.655,2.977-3.5,8.002-6.298,11.194c-2.799,3.191-6.951,10.144-9.219,15.421l-4.123,9.595
		l158.951-0.114l-5.038-7.082c-2.771-3.907-5.039-9.559-5.039-12.508c0-2.948-1.649-10.091-3.665-15.935
		c-4.211-12.209-4.646-18.501-1.374-19.818c1.362-0.548,1.001-0.999-0.916-1.085c-2.561-0.114-3.204-1.714-3.149-7.882
		c0.038-4.271-0.457-14.899-1.088-23.587c-1.115-15.355-1.353-15.963-8.303-22.731C654.314,452.935,651.428,449.114,651.106,447.591
		z"/>
	<path id="path4053" fill="#8CC056" d="M591.957,348.5c-1.341-0.499-2.452-0.989-4.008-1.485c-5.866-1.87-12.738-3.712-16.49-4.969
		c-4.72-1.58-9.104-2.68-13.456-3.427s-8.629-1.143-13.112-1.143c-3.13,0-5.546,0.037-7.501,0.171
		c-1.955,0.135-3.489,0.385-4.866,0.856c-1.378,0.474-2.612,1.153-4.009,2.171c-1.396,1.017-2.913,2.403-4.925,4.169
		c-2.291,2.012-5.188,4.049-8.017,5.77c-2.826,1.72-5.617,3.114-7.615,3.712c-2.145,0.641-4.125,1.599-5.726,2.685
		c-1.603,1.086-2.783,2.306-3.321,3.484c-0.539,1.179-2.658,3.035-5.496,5.254c-2.839,2.219-6.443,4.757-9.906,7.253
		c-2.168,1.562-3.962,2.938-5.783,4.341c0.393,2.265,1.803,4.067,5.439,7.368c8.568,7.777,8.395,10.794-0.63,10.794
		c-6.169,0-7.414,0.724-9.392,5.483c-2.509,6.042-3.146,6.274-9.904,3.712c-4.568-1.732-4.531-1.609,1.545,6.854
		c3.809,5.304,7.812,14.436,10.365,23.759l4.121,15.136l-13.056,11.88c-12.22,11.125-13.221,12.598-15.23,22.788
		c-1.91,9.681-2.615,10.907-6.527,10.907c-2.42,0-4.845-1.173-5.382-2.568c-0.562-1.462-2.437-2.129-4.466-1.601
		c-1.939,0.507-3.071,1.622-2.52,2.514c0.552,0.892,0.094,1.655-0.974,1.655c-1.067,0-1.947,2.058-1.947,4.569
		c0,2.55,1.064,4.569,2.405,4.569c1.345,0,3.448,3.945,4.752,9.022l2.348,9.081l4.008-4.684c3.906-4.528,4.252-4.584,10.593-1.941
		c4.766,1.986,8.152,5.516,12.425,12.965c3.232,5.638,6.426,10.28,7.042,10.28s2.981-1.799,5.269-3.94l4.122-3.884l-3.664-7.254
		c-2.038-3.985-3.308-7.666-2.806-8.167c2.68-2.673,12.374,2.104,15.918,7.824c3.189,5.148,4.96,6.282,10.078,6.282
		c5.115,0,6.44-0.815,7.386-4.568c1.046-4.156,2.033-4.569,10.88-4.569c8.289,0,10.239-0.691,13.112-4.625
		c3.307-4.528,3.507-4.597,11.967-2.058c4.742,1.424,9.993,3.914,11.624,5.54c0.433,0.432,0.237,0.532,0.515,0.857
		c0.498-0.21,1.011-0.422,1.433-0.687c1.07-0.67,1.921-1.457,2.462-2.228c0.684-0.975,2.278-2.268,4.295-3.599
		c2.017-1.332,4.438-2.666,6.812-3.713s5.169-2.562,7.73-4.169c2.562-1.606,4.901-3.292,6.413-4.684
		c3.021-2.783,7.764-6.514,10.535-8.226c1.84-1.136,3.094-2.234,3.894-3.598s1.146-2.973,1.146-4.969
		c0-2.104,0.344-3.687,1.26-5.083c0.916-1.398,2.404-2.604,4.695-3.998c1.638-0.996,3.765-1.905,5.84-2.57
		c2.076-0.665,4.101-1.072,5.611-1.085c1.875-0.016,4.403-0.633,7.157-1.599c2.754-0.968,5.764-2.311,8.531-3.771
		c2.769-1.461,5.297-3.014,7.215-4.513c1.917-1.498,3.233-2.917,3.437-3.997c0.354-1.9,1.771-4.729,3.148-6.283
		c0.534-0.603,1.183-1.767,1.832-3.312c0.191-0.453,0.355-1.069,0.516-1.656c-0.019-0.087-0.229-0.329-0.229-0.399
		c0-1.304-0.728-2.342-1.604-2.342c-0.876,0-2.615-3.731-3.894-8.281c-1.276-4.55-3.146-8.765-4.122-9.365
		c-1.041-0.644-0.712-1.766,0.744-2.686c1.869-1.182,1.554-1.571-1.202-1.6c-5.145-0.052-15.874-7.087-22.503-14.735
		c-4.463-5.146-6.848-6.387-11.738-6.225c-3.38,0.11-7.739,1.131-9.733,2.284c-3.603,2.083-3.648,2.114-0.058,2.17
		c3.344,0.052,3.31,0.274-0.63,3.026c-3.672,2.565-5.299,2.613-11.854,0.628c-6.139-1.857-6.911-2.52-4.064-3.541
		c2.745-0.984,0.837-2.357-8.704-6.168c-6.735-2.688-14.17-4.854-16.49-4.854c-4.479,0-15.588-10.096-13.455-12.222
		c0.692-0.692,7.893,1.469,15.976,4.797l14.658,6.054l11.395-5.597c14.469-7.115,19.296-8.435,22.103-6.111
		c2.733,2.264,17.692,0.524,17.692-2.056c0-2.474-5.032-6.41-12.54-9.768c-5.53-2.474-6.044-3.324-5.037-8.338
		c1.036-5.173,0.779-5.456-3.035-4.112c-4.842,1.705-21.081,1.818-22.731,0.172c-1.409-1.405,6.756-8.369,9.905-8.452
		C590.963,349.844,591.655,349.235,591.957,348.5z"/>
	<path id="path4060" fill="#CD9C62" d="M570.313,214.741c0.267,1.039,0.643,2.419,0.688,2.569c0.86,2.906,1.546,6.043,1.546,7.253
		c0,1.211,0.278,2.587,0.744,3.771s1.126,2.214,1.832,2.799s1.443,1.635,2.119,2.855c0.676,1.22,1.284,2.615,1.603,3.884
		c0.354,1.399,1.235,2.791,2.463,4.055c1.228,1.265,2.79,2.392,4.58,3.199c2.047,0.922,4.419,1.518,6.93,1.827
		c2.51,0.309,5.153,0.325,7.787,0.057c2.633-0.268,5.257-0.787,7.673-1.599c2.416-0.812,4.609-1.936,6.47-3.256
		c1.723-1.224,4.303-2.418,7.158-3.428c2.854-1.008,5.991-1.787,8.816-2.17c3.065-0.415,6.302-1.273,9.333-2.397
		c3.032-1.124,5.892-2.52,8.246-4.112c4.193-2.839,9.016-5.608,10.707-6.111c0.652-0.192,1.188-0.562,1.66-1.085
		c0.446-0.491,0.804-1.105,1.031-1.771c-2.016-1.142-3.493-2.465-3.493-3.771c0-3.588-3.436-3.575-4.811,0
		c-1.55,4.028-11.296,3.235-20.671-1.655c-6.94-3.622-9.139-3.947-16.146-2.456c-6.325,1.346-9.881,1.044-15.918-1.258
		c-7.105-2.706-8.376-2.698-14.716-0.057c-3.813,1.589-8.21,2.376-9.791,1.771C575.179,213.283,572.888,213.852,570.313,214.741z"/>
	<path id="path4155" fill="#7462CD" d="M427.971,416.92c-0.068-0.043-0.103-0.071-0.172-0.114c-1.972-1.232-3.953-2.402-4.924-3.025
		c-1.114-0.717-2.281-1.224-3.493-1.601c-0.016-0.005-0.259-0.266-0.287-0.285c-2.563,2.796-4.581,5.359-4.581,6.339
		c0,1.429-0.778,3.076-1.718,3.655c-0.94,0.58-2.595,5.494-3.722,10.909c-1.718,8.254-2.822,10.037-6.757,11.021
		c-4.529,1.135-4.557,1.297-1.431,4.74c1.806,1.99,5.601,3.6,8.589,3.6c4.969,0,5.27-0.418,4.18-5.369
		c-0.931-4.227,0.084-7.181,4.924-14.164C422.136,427.497,425.221,422.119,427.971,416.92z"/>
	<path id="path3139" fill="#D1C370" d="M519.483,88.899c-1.1,0.138-2.433,0.601-4.295,1.371c-5.94,2.455-6.071,3.331-2.52,15.706
		c0.871,3.034-0.268,4.667-5.439,7.71c-7.209,4.242-7.963,6.065-3.837,9.481c1.513,1.251,2.749,3.42,2.749,4.854
		c0,2.107-2.11,2.373-10.994,1.371c-12.08-1.363-13.183-0.219-8.244,8.396c3.824,6.672,3.33,9.138-1.832,9.138
		c-2.521,0-4.582,0.497-4.582,1.143c0,0.645,3.299,6.37,7.33,12.736c7.485,11.822,8.74,15.364,5.496,15.364
		c-1.008,0-1.832-1.338-1.832-2.913c0-1.991-1.054-2.485-3.492-1.713c-1.932,0.611-4.047,0.247-4.695-0.799
		c-0.648-1.046-3.984-1.885-7.387-1.885c-3.403,0-8.164-0.771-10.65-1.713c-5.039-1.912-7.997,0.393-11.909,9.538
		c-2.54,5.937-1.384,12.216,4.008,21.703c4.83,8.5,3.015,10.437-5.727,5.997c-3.767-1.913-7.555-3.771-8.417-4.17
		c-1.414-0.649-0.54,6.392,1.832,14.793c0.497,1.759,2.461,3.198,4.409,3.198c4.498,0,4.479,0.884-0.458,7.938
		c-5.829,8.329-9.748,10.164-16.261,6.568c-0.817,0.799-1.757,1.437-2.634,2.17c0.347,0.213,0.917,0.358,0.917,0.628
		c0,0.268-1.167,3.906-2.634,8.054c-1.467,4.146-2.103,7.538-1.374,7.538c0.729,0,4.463-2.138,8.303-4.74
		c3.839-2.602,7.313-4.471,7.672-4.11c0.36,0.357,1.233,5.08,1.947,10.451l1.259,9.767l-5.268-1.143
		c-4.515-0.972-5.74-0.354-8.303,4.169c-2.681,4.732-2.748,5.599-0.286,8.054c2.461,2.454,2.415,3.384-0.63,8.566
		c-2.934,4.992-4.208,5.685-9.047,4.911c-3.101-0.494-8.46-0.239-11.91,0.571l-6.298,1.484l7.329,0.229
		c8.758,0.293,19.88,8.424,15.403,11.251c-1.423,0.898-4.432,1.643-6.699,1.656c-6.094,0.042-5.062,2.536,4.409,10.853
		c4.677,4.105,7.508,7.481,6.299,7.481s-1.711,0.822-1.088,1.827s2.634,1.828,4.466,1.828c3.795,0,8.635-4.776,5.84-5.77
		c-0.983-0.35,3.992-5.433,11.051-11.309c7.06-5.876,13.254-10.253,13.799-9.709c1.194,1.189-9.912,14.936-17.062,21.132
		c-3.132,2.714-4.28,4.745-2.92,5.197c3.833,1.273,2.434,5.885-2.462,8.108c-3.763,1.71-4.451,3.048-3.55,6.625
		c0.791,3.144-0.051,5.7-2.806,8.625c-3.746,3.978-3.732,4.25-0.515,6.168c3.191,1.903,3.117,2.176-0.859,5.54
		c-3.169,2.683-3.871,4.676-2.978,8.225c1.03,4.096,0.5,4.835-4.18,5.769c-6.548,1.308-11.392,7.665-7.615,10.053
		c1.353,0.854,3.905,1.584,5.668,1.6c4.024,0.035,4.062,1.531,0.115,5.883c-2.938,3.238-2.889,3.521,0.916,4.512
		c5.975,1.56,4.93,4.766-4.237,13.193c-1.421,1.307-2.494,2.55-3.665,3.826c0.027,0.02,0.271,0.281,0.286,0.285
		c1.212,0.377,2.379,0.884,3.493,1.6c0.971,0.624,2.953,1.794,4.924,3.027c0.068,0.043,0.103,0.069,0.171,0.113
		c6.566-12.409,10.255-23.244,6.871-23.244c-1.087,0-1.927-2.674-1.832-5.94c0.134-4.622,1.992-7.534,8.303-13.078
		c4.459-3.918,8.539-6.675,9.104-6.11c0.565,0.563-0.822,4.231-3.092,8.167c-2.572,4.456-3.604,8.435-2.806,10.509
		c1.209,3.143,1.482,3.08,5.439-0.628c5.451-5.107,6.7-4.917,6.7,0.855v4.74l5.955-3.712c4.104-2.562,7.021-6.587,9.391-12.965
		c3.939-10.615,7.689-12.501,5.896-2.971c-0.385,2.048-0.398,3.485-0.172,4.798c1.822-1.403,3.617-2.778,5.783-4.341
		c3.463-2.497,7.067-5.034,9.905-7.254c2.839-2.218,4.958-4.073,5.497-5.254c0.538-1.179,1.72-2.397,3.321-3.483
		c1.601-1.085,3.582-2.043,5.726-2.686c1.997-0.597,4.789-1.992,7.615-3.712c2.827-1.72,5.725-3.757,8.018-5.769
		c2.012-1.767,3.527-3.152,4.924-4.169c1.396-1.018,2.632-1.697,4.009-2.172c1.377-0.473,2.912-0.722,4.867-0.855
		c1.954-0.134,4.371-0.171,7.501-0.171c4.482,0,8.761,0.395,13.111,1.143c4.353,0.747,8.735,1.847,13.456,3.426
		c3.752,1.258,10.624,3.1,16.49,4.971c1.556,0.496,2.667,0.984,4.008,1.483c0.075-0.182,0.286-0.313,0.286-0.514
		c0-2.374,14.858-2.378,21.129,0c7.06,2.677,14.108-3.01,19.183-15.478c3.633-8.928,5.148-10.571,13.8-14.793
		c9.307-4.541,14.261-10.069,10.191-11.423c-2.563-0.853,2.757-11.326,7.845-15.421c2.159-1.735,5.337-3.176,7.101-3.197
		c4.34-0.056,4.107-5.594-0.286-6.739c-1.931-0.504-4.017-2.957-4.638-5.426c-1.272-5.058,2.16-10.675,12.597-20.676
		c5.454-5.228,6.527-7.576,6.527-13.82c0-5.857-1.095-8.57-5.096-12.395c-2.827-2.701-6.9-4.912-9.048-4.912
		c-3.568,0-7.22-1.139-9.849-2.627c-0.228,0.664-0.585,1.279-1.031,1.771c-0.474,0.521-1.008,0.892-1.659,1.085
		c-1.693,0.503-6.515,3.271-10.709,6.11c-2.354,1.595-5.213,2.988-8.244,4.112c-3.032,1.124-6.269,1.983-9.333,2.398
		c-2.827,0.383-5.962,1.162-8.818,2.171c-2.854,1.008-5.435,2.203-7.157,3.426c-1.858,1.321-4.054,2.444-6.47,3.256
		c-2.417,0.812-5.04,1.331-7.673,1.601c-2.633,0.268-5.277,0.252-7.787-0.059c-2.51-0.31-4.882-0.905-6.929-1.827
		c-1.79-0.808-3.354-1.935-4.581-3.197c-1.228-1.266-2.109-2.654-2.462-4.057c-0.318-1.268-0.929-2.663-1.604-3.884
		s-1.412-2.271-2.118-2.854s-1.366-1.615-1.832-2.8c-0.466-1.183-0.743-2.559-0.743-3.769c0-1.211-0.687-4.348-1.548-7.254
		c-0.045-0.151-0.42-1.531-0.687-2.57c-1.602,0.554-3.271,1.123-4.925,1.999c-7.47,3.953-7.973,3.963-10.249,0.856
		c-2.254-3.073-2.616-2.968-6.757,1.429c-4.325,4.593-11.572,6.025-16.032,3.198c-3.191-2.023-0.743-4.812,8.589-9.71
		c7.938-4.166,8.059-4.324,3.206-4.911c-8.198-0.992-5.768-3.786,4.467-5.142c6.834-0.903,10.79-2.588,13.971-5.995l4.409-4.741
		l-6.757-0.628c-6.067-0.518-6.671-1.003-5.496-4.569c0.723-2.194,1.272-6.133,1.202-8.795c-0.099-3.729,1.146-5.365,5.439-7.139
		c3.065-1.267,10.443-5.449,16.434-9.31c5.988-3.861,12.711-7.104,14.944-7.139c2.232-0.035,6.127-1.19,8.646-2.627
		c4.083-2.329,4.183-2.656,0.916-2.742c-2.597-0.068-1.228-1.544,4.695-5.083c4.598-2.747,11.322-8.297,14.944-12.336l6.585-7.368
		l-3.607-4.969l-3.607-4.912l5.039-4.397l5.097-4.341l-5.727-2.97c-5.479-2.827-5.822-2.788-6.929,0.685
		c-1.042,3.277-2.799,3.655-17.464,3.655c-14.54,0-16.671-0.443-20.099-4.112c-6.702-7.177-29.525-4.147-31.722,4.226
		c-0.506,1.928-2.277,3.541-3.951,3.541c-2.212,0-2.736-1.049-1.89-3.712c1.769-5.557-4.316-7.093-8.359-2.113
		c-4.343,5.349-4.84,5.074-6.241-3.199c-0.666-3.931-2.778-8.55-4.694-10.28C522.516,89.361,521.315,88.668,519.483,88.899z"/>
	<path id="path3100" fill="#D17070" d="M377.007,387.279c-3.482,0.015-7.296,0.995-8.475,2.172
		c-2.793,2.785-0.646,8.616,2.462,6.682c5.175-3.224,6.899-2.138,6.871,4.513c-0.015,3.681-0.792,7.906-1.718,9.366
		c-3.043,4.798-0.021,5.624,7.215,1.941l7.1-3.655l-3.55-10.509C383.488,387.676,383.087,387.257,377.007,387.279z"/>
	<g id="g2027" transform="matrix(1.832292,0,0,1.827615,-85.75787,-469.873)">
		<path id="path1993" fill="#618EBD" d="M281.538,385.613c0.479-0.401,0.992-0.751,1.437-1.188
			c-0.944-0.523-1.922-1.141-3.125-2.094c-2.768-2.192-3.807-3.708-3.469-5c0.267-1.02,0.076-1.845-0.406-1.845
			c-0.483,0-0.778-3.676-0.656-8.156c0.234-8.62-1.179-11.351-3.375-6.531c-0.999,2.192-1.934,2.547-8.438,3.156
			c-8.701,0.815-10.503,2.207-7.031,5.468c2.017,1.895,3.088,2.134,6.469,1.562c3.769-0.636,4.071-0.488,4.688,1.969
			c0.468,1.863,0.17,2.988-1,3.843c-1.472,1.077-1.149,1.676,2.844,5.594c3.664,3.596,4.751,4.172,5.938,3.187
			C276.428,384.739,280.385,384.902,281.538,385.613z"/>
		<path id="path3163" fill="#618EBD" d="M477.029,186.501c-0.55,0-1,0.449-1,1.031c0,0.582,0.45,0.809,1,0.469
			c0.55-0.34,1-0.82,1-1.063C478.029,186.695,477.579,186.501,477.029,186.501z"/>
		<path id="path3161" fill="#618EBD" d="M404.873,196.501c-0.455,0-0.844,0.929-0.844,2.094c0,1.624-0.466,1.995-2,1.594
			c-1.1-0.287-2.216-0.147-2.5,0.313c-0.284,0.459,0.504,1.042,1.75,1.281c1.246,0.239,2.556,0.488,2.906,0.563
			c0.35,0.075,0.82-1.194,1.062-2.844C405.489,197.852,405.328,196.501,404.873,196.501z"/>
		<path id="path3159" fill="#618EBD" d="M467.654,197.782c-0.228,0.02-0.481,0.169-0.781,0.469c-0.605,0.605-0.804,1.89-0.438,2.844
			c0.484,1.261,0.981,1.425,1.781,0.625c0.605-0.605,0.772-1.89,0.407-2.844C468.32,198.087,468.033,197.748,467.654,197.782z"/>
		<path id="path3157" fill="#618EBD" d="M459.654,198.501c-1.066,0-1.625,0.857-1.625,2.594c0,2.108-0.387,2.539-1.969,2.125
			c-1.08-0.282-2.458,0.084-3.062,0.812c-1.073,1.294-0.341,1.579,5.781,2.313c0.697,0.083,1.25-0.933,1.25-2.281
			c0-1.33,0.292-3.13,0.625-4C461.052,199.025,460.708,198.501,459.654,198.501z"/>
		<path id="path3155" fill="#618EBD" d="M475.529,198.501c-0.824,0-1.5,0.45-1.5,1c0,0.55,0.675,1,1.5,1s1.5-0.45,1.5-1
			C477.029,198.951,476.354,198.501,475.529,198.501z"/>
		<path id="path3153" fill="#618EBD" d="M462.217,208.907c-0.8,0.027-1.502,1.079-2.188,3.156l-1.218,3.687l-4.907-0.594
			c-4.233-0.501-4.875-0.328-4.875,1.219c0,0.981,1.125,2.389,2.5,3.125c1.375,0.736,2.5,1.77,2.5,2.312
			c0,0.542,0.929,0.151,2.063-0.875c1.764-1.596,2.209-1.656,3-0.406c0.508,0.803,0.93,2.03,0.938,2.75
			c0.009,0.72,0.45,1.059,1,0.719c0.55-0.34,1-1.58,1-2.75c0-1.17,0.941-3.149,2.094-4.375c1.881-2.002,1.958-2.491,0.75-4.969
			C463.888,209.886,463.016,208.88,462.217,208.907z"/>
		<path id="path3151" fill="#618EBD" d="M411.936,277.501c-0.55,0-0.746,0.45-0.407,1c0.34,0.55,1.075,1,1.625,1
			c0.55,0,0.715-0.45,0.375-1C413.189,277.951,412.486,277.501,411.936,277.501z"/>
		<path id="path3149" fill="#618EBD" d="M396.81,279.501c-0.585,0-0.499,0.635,0.219,1.5c0.684,0.825,1.403,1.5,1.594,1.5
			c0.19,0,0.098-0.675-0.219-1.5C398.087,280.176,397.369,279.501,396.81,279.501z"/>
		<path id="path3147" fill="#618EBD" d="M386.873,281.876c-1.525,0.048-2.318,0.702-0.875,1.594
			c0.887,0.548,0.793,1.641-0.375,4.437l-1.531,3.719l3.032-0.656c2.554-0.561,3.135-0.317,3.594,1.438
			c0.572,2.189,2.75,2.813,3.812,1.094c0.34-0.55,0.118-1-0.5-1c-0.618,0-1.024-1.238-0.907-2.75
			c0.387-4.952-0.053-6.017-3.031-7.25C388.953,282.029,387.788,281.847,386.873,281.876z"/>
		<path id="path3145" fill="#618EBD" d="M408.81,285.501c-0.585,0-0.499,0.635,0.219,1.5c0.684,0.825,1.403,1.5,1.594,1.5
			c0.191,0,0.098-0.675-0.219-1.5C410.088,286.175,409.369,285.501,408.81,285.501z"/>
		<path id="path3143" fill="#618EBD" d="M397.748,292.532c-0.058,0.009-0.113,0.019-0.156,0.063
			c-0.259,0.259-0.224,1.474,0.094,2.687c0.578,2.21,1.837,2.865,2.719,1.437C400.923,295.88,398.608,292.396,397.748,292.532z"/>
		<path id="path3141" fill="#618EBD" d="M383.123,298.501c-3.063,0-3.197,1.275-0.344,3.156c3.003,1.981,5.25,2.371,5.25,0.906
			C388.029,301.01,384.994,298.501,383.123,298.501z"/>
		<path id="path3137" fill="#618EBD" d="M284.279,307.469l-3.875,1.625c-2.133,0.879-4.775,2.4-5.875,3.406
			c-1.1,1.006-3.252,2.152-4.781,2.531c-2.147,0.533-2.649,1.108-2.188,2.563c0.547,1.724-0.024,1.896-6.719,1.968
			c-4.025,0.044-6.721,0.305-6,0.594c1.033,0.413,0.982,0.917-0.281,2.312c-1.498,1.656-1.334,1.866,2.438,3.375
			c2.219,0.888,5.677,3.431,7.688,5.656c3.901,4.318,5.673,4.654,6.188,1.156c0.201-1.369,1.033-2.156,2.25-2.156
			c2.378,0,2.486-1.575,0.219-2.844c-1.489-0.833-1.345-1.25,1.25-3.531c1.613-1.417,3.695-2.577,4.625-2.594
			c1.911-0.036,3.6-2.031,1.719-2.031c-0.804,0-0.659-0.604,0.406-1.781c0.884-0.977,1.91-3.675,2.281-6L284.279,307.469z"/>
		<path id="path3135" fill="#618EBD" d="M259.685,329.844c-0.12,0.005-0.246,0.044-0.375,0.094
			c-0.795,0.305-2.514,0.562-3.844,0.562c-3.447,0-2.996,1.51,1.312,4.437c5.37,3.649,6.274,3.396,5.031-1.5
			C261.167,330.904,260.523,329.81,259.685,329.844z"/>
		<path id="path3133" fill="#618EBD" d="M253.404,339.001c-2.332,0.191-3.084,1.902-1.344,4c1.557,1.876,2.403,1.886,3.969,0
			c0.685-0.825,1.976-1.5,2.844-1.5c2.576,0-0.011-1.699-3.625-2.375C254.553,338.996,253.942,338.956,253.404,339.001z"/>
		<path id="path3131" fill="#618EBD" d="M238.685,348.501c-2.353-0.056-4.748,0.32-5.188,1.031
			c-1.945,3.148,2.411,4.885,8.281,3.312c2.598-0.696,3.004-2.861,0.688-3.75C241.511,348.728,240.097,348.534,238.685,348.501z"/>
		<path id="path3129" fill="#618EBD" d="M237.654,360.501c-0.892,0-1.625,0.675-1.625,1.5c0,0.825,0.167,1.5,0.375,1.5
			c0.208,0,0.94-0.675,1.625-1.5C239.049,360.772,238.983,360.501,237.654,360.501z"/>
		<path id="path3127" fill="#618EBD" d="M241.529,364.001c-0.344,0.05-0.685,0.254-1.094,0.594c-1.193,0.99-1.151,1.366,0.344,2.5
			c2.055,1.56,4.25,1.801,4.25,0.469c0-0.511-0.71-1.648-1.594-2.531C242.656,364.253,242.102,363.918,241.529,364.001z"/>
		<path id="path3124" fill="#618EBD" d="M238.404,369.501c-0.659,0.015-1.73,1.45-2.75,4c-2.906,7.261-1.474,9.388,1.75,2.594
			c0.892-1.879,1.625-4.12,1.625-5C239.029,370.002,238.799,369.491,238.404,369.501z"/>
		<path id="path3122" fill="#618EBD" d="M245.248,370.157c-0.352,0.01-0.76,0.058-1.219,0.125c-1.679,0.246-3,1.037-3,1.812
			c0,1.651,0.136,1.662,3.437,0.407C247.542,371.331,247.712,370.09,245.248,370.157z"/>
		<path id="path3120" fill="#618EBD" d="M249.279,373.626c-2.248-0.051-4.812,1.251-4.812,2.875c0,1.486,0.514,1.795,2.188,1.375
			c1.197-0.301,2.478-0.018,2.875,0.625c0.482,0.78,1.137,0.372,1.938-1.187c0.961-1.873,0.927-2.499-0.156-3.156
			C250.738,373.809,250.028,373.642,249.279,373.626z"/>
		<path id="path3118" fill="#618EBD" d="M241.092,376.063c-0.499-0.057-1.293,0.569-1.875,1.5c-1.389,2.224-0.004,2.614,1.75,0.5
			c0.644-0.776,0.779-1.618,0.313-1.906C241.221,376.121,241.163,376.071,241.092,376.063z"/>
		<path id="path3116" fill="#618EBD" d="M225.373,387.688c-0.206-0.026-0.344,0.124-0.344,0.437c0,1.335,1.177,2.511,1.844,1.844
			c0.284-0.284-0.005-1.037-0.656-1.687C225.858,387.923,225.579,387.714,225.373,387.688z"/>
		<path id="path3114" fill="#618EBD" d="M263.217,393.907c-0.509,0.067-1.075,0.416-1.594,1.125
			c-0.778,1.064-1.196,2.269-0.938,2.688c0.837,1.355,3.124,0.807,3.781-0.906C265.171,394.978,264.336,393.759,263.217,393.907z"/>
		<path id="path3112" fill="#618EBD" d="M253.998,416.501c-3.829,0-8.231,1.767-7.469,3c0.703,1.138,3.842,1.269,8.313,0.375
			C258.698,419.105,258.046,416.501,253.998,416.501z"/>
		<path id="path3110" fill="#618EBD" d="M264.029,422.5c-0.402,0-1.271,0.61-1.906,1.375c-0.915,1.102-0.579,1.825,1.625,3.468
			c2.987,2.229,6.281,2.803,6.281,1.094C270.029,427.285,265.196,422.5,264.029,422.5z"/>
		<path id="path3108" fill="#618EBD" d="M240.029,423.063c-0.529,0.001-1.117,0.284-1.344,0.875c-0.37,0.963-0.06,1.277,0.906,0.906
			c0.797-0.306,1.437-0.723,1.437-0.906C241.029,423.347,240.559,423.062,240.029,423.063z"/>
		<path id="path3106" fill="#618EBD" d="M274.592,433.001c-2.209,0.112-4.563,0.779-4.563,1.625c0,0.481-0.787,0.867-1.75,0.875
			c-1.437,0.012-1.492,0.191-0.312,0.937c1.184,0.75,1.226,1.179,0.156,2.469c-1.157,1.394-0.98,1.442,1.813,0.469
			c2.268-0.791,3.511-0.795,4.469,0c1.014,0.841,1.59,0.517,2.437-1.344c0.831-1.824,0.807-2.54-0.094-2.906
			c-0.659-0.268-0.319-0.534,0.781-0.594c1.768-0.097,1.804-0.211,0.344-1.063C277.178,433.064,275.917,432.933,274.592,433.001z"/>
		<path id="path3104" fill="#618EBD" d="M256.56,453.72c-0.118-0.108-0.468,0.32-1.125,1.219c-1.607,2.197-1.783,3.562-0.5,3.562
			c0.486,0,1.119-1.248,1.406-2.75C256.586,454.474,256.678,453.827,256.56,453.72z"/>
		<path id="path3102" fill="#618EBD" d="M274.935,455.969c-0.491-0.008-2.603,0.847-5.125,2.125c-4.787,2.426-5.047,2.743-3,3.5
			c2.432,0.9,3.053,2.907,0.906,2.907c-1.968,0-6.009,4.671-5.188,6c0.977,1.582,4.923-2.173,9.156-8.719
			c1.85-2.861,3.344-5.439,3.344-5.75C275.029,455.993,275.005,455.971,274.935,455.969z"/>
		<path id="path3098" fill="#618EBD" d="M293.56,470.845c-0.233,0.042-0.57,0.278-1.062,0.687c-1.236,1.026-1.286,1.437-0.25,2.094
			c1.784,1.132,1.781,1.141,1.781-1.25C294.029,471.25,293.95,470.773,293.56,470.845z"/>
		<path id="path3096" fill="#618EBD" d="M286.967,488.594c-0.432,0.04-0.823,0.542-1.5,1.406c-1.118,1.426-1.406,3.121-0.969,5.938
			c0.972,6.256,3.539,8.26,6.156,4.813c2.087-2.749,1.611-6.901-1.125-9.969C288.139,489.223,287.522,488.544,286.967,488.594z"/>
	</g>
	<path id="rect2003" fill="#BAB68C" d="M303.486,436.968c-1.247,0.117-2.971,1.512-6.47,4.626
		c-3.677,3.273-6.975,8.054-7.329,10.566c-0.426,3.019-1.776,4.45-3.894,4.282c-1.763-0.14-3.207,0.834-3.207,2.172
		c0,2.592-3.342,5.403-4.752,3.996c-0.465-0.464-0.059-2.926,0.916-5.481c1.004-2.634,1.13-6.877,0.286-9.823l-1.489-5.197
		l-2.004,5.025c-2.446,6.092-3.315,6.192-7.73,0.914c-1.965-2.349-3.458-3.123-3.493-1.771c-0.044,1.712-1.835,2.011-6.47,1.144
		c-5.173-0.969-6.413-0.605-6.413,1.771c0,3.401-1.587,3.659-8.074,1.199c-3.85-1.46-4.993-1.141-6.585,1.827
		c-1.359,2.533-3.87,3.599-8.417,3.599c-3.655,0-5.998,0.722-5.382,1.714c0.598,0.965,0.034,3.532-1.26,5.653
		c-2.093,3.433-1.771,4.282,2.92,8.053c6.045,4.86,5.031,9.243-1.775,7.539c-2.707-0.678-4.409-0.32-4.409,0.973
		c0,1.342-1.904,1.722-5.382,1.026c-5.195-1.035-17.096,2.529-19.067,5.712c-2.417,3.9,6.439,8.521,20.098,10.51
		c10.212,1.484,22.674,6.023,22.674,8.224c0,0.816-2.326,1.996-5.21,2.628c-3.167,0.693-6.095,2.998-7.386,5.825
		c-1.7,3.721-3.104,4.487-6.871,3.77c-5.878-1.12-11.681,4.119-11.681,10.565c0,3.351-0.977,4.569-3.665,4.569
		c-5.415,0-4.45,2.888,1.833,5.481c3.023,1.249,5.497,2.943,5.497,3.827c0,4.198-17.015-0.612-21.586-6.111
		c-1.297-1.56-3.919-2.441-5.841-1.94c-1.921,0.501-6.155-0.391-9.39-1.999c-7.335-3.65-7.158-3.654-7.158,0.742
		c0,4.036-2.849,4.524-9.963,1.827c-5.375-2.038-5.894-4.775-1.833-9.253c2.628-2.896,1.808-3.425-11.566-7.023
		c-16.826-4.529-22.19-4.806-23.534-1.314c-0.537,1.396-3.397,3.009-6.356,3.6c-5.084,1.015-5.382,1.588-5.382,10.166
		c0,4.991,0.825,9.603,1.833,10.224c3.002,1.85,2.079,9.701-1.375,11.708c-3.035,1.763-2.989,1.889,0.115,1.941
		c5.309,0.09,17.75,7.172,17.75,10.108c0,2.087-2.51,2.741-10.994,2.741h266.599l0.516-9.595c0.675-12.358,2.144-19.038,3.722-16.85
		c0.687,0.953,2.909,2.663,4.924,3.771c4.372,2.4,5.912,12.485,2.52,16.562c-1.996,2.398-1.676,2.714,2.176,2.172
		c3.969-0.56,4.469-1.481,4.237-7.939c-0.145-4.021-1.48-11.422-2.978-16.448l-2.749-9.138l-12.139,0.285
		c-6.672,0.154-12.139-0.462-12.139-1.37c0-0.909,1.031-1.743,2.29-1.828c1.26-0.085,5.046-3.341,8.417-7.253
		c5.471-6.352,5.853-7.412,3.378-9.881c-1.525-1.521-3.347-5.477-4.065-8.738c-0.719-3.263-2.504-7.735-3.951-9.938
		c-1.447-2.203-2.821-8.796-3.035-14.68c-0.453-12.441-4.191-17.475-16.205-21.702c-12.529-4.409-38.134-2.898-38.134,2.229
		c0,1.382-0.825,2.513-1.833,2.513c-1.008,0-1.832-1.638-1.832-3.599c0-1.96-1.443-4.4-3.207-5.426
		c-1.9-1.104-2.254-1.853-0.859-1.886c2.473-0.058,1.364-3.205-3.55-9.709C305.133,437.546,304.455,436.877,303.486,436.968z"/>
	<text transform="matrix(1.0026 0 0 1 596.0859 200.7579)" font-family="'ArialMT'" font-size="29.2419">Speyside</text>
	<text transform="matrix(1.0026 0 0 1 473.001 276.5987)" font-family="'ArialMT'" font-size="29.2419">Highland</text>
	<text transform="matrix(1.0026 0 0 1 270.6064 147.5557)" font-family="'ArialMT'" font-size="29.2419">Island</text>
	<text transform="matrix(1.0026 0 0 1 305.5957 389.7296)" font-family="'ArialMT'" font-size="29.2419">Islay</text>
	<text transform="matrix(1.0026 0 0 1 213.9478 555.6475)" font-family="'ArialMT'" font-size="25.2556">Irish Whiskeys</text>
	<text transform="matrix(1.0026 0 0 1 285.8608 434.7618)" font-family="'ArialMT'" font-size="19.9393">Campbeltown</text>
	<text transform="matrix(1.0026 0 0 1 490.7363 446.4952)" font-family="'ArialMT'" font-size="29.2419">Lowland</text>
</g>
</svg>
