<?xml version="1.0" encoding="utf-8"?>
<!-- Generator: Adobe Illustrator 16.0.0, SVG Export Plug-In . SVG Version: 6.00 Build 0)  -->
<!DOCTYPE svg PUBLIC "-//W3C//DTD SVG 1.1//EN" "http://www.w3.org/Graphics/SVG/1.1/DTD/svg11.dtd">
<svg version="1.1"
	 id="svg2" sodipodi:docname="Scotch_regions.recolor_01.svg" inkscape:version="0.44.1" sodipodi:version="0.32" sodipodi:docbase="/var/home/ilmari/Misc" xmlns:cc="http://web.resource.org/cc/" xmlns:sodipodi="http://sodipodi.sourceforge.net/DTD/sodipodi-0.dtd" xmlns:rdf="http://www.w3.org/1999/02/22-rdf-syntax-ns#" xmlns:inkscape="http://www.inkscape.org/namespaces/inkscape" xmlns:dc="http://purl.org/dc/elements/1.1/" xmlns:svg="http://www.w3.org/2000/svg"
	 xmlns="http://www.w3.org/2000/svg" xmlns:xlink="http://www.w3.org/1999/xlink" x="0px" y="0px" width="700px" height="700px"
	 viewBox="0 0 700 700" enable-background="new 0 0 700 700" xml:space="preserve">
<sodipodi:namedview  height="700px" width="700px" inkscape:window-width="1272" inkscape:window-y="0" inkscape:pageopacity="0.0" inkscape:pageshadow="2" inkscape:window-x="0" inkscape:current-layer="layer1" inkscape:document-units="px" inkscape:window-height="948" guidetolerance="10" inkscape:zoom="0.25" borderopacity="1.0" id="base" objecttolerance="10" pagecolor="#ffffff" gridtolerance="10000" bordercolor="#666666" inkscape:cy="291.86439" inkscape:cx="310.34534">
	</sodipodi:namedview>
<g id="layer1" transform="translate(-103.0381,132.7)" inkscape:groupmode="layer" inkscape:label="Layer 1">
	<path id="path4055" sodipodi:nodetypes="cssssssssssssssssssscsssccccsssssssc" fill="#C0C0C0" d="M651.106,447.591
		c-0.16,0.587-0.324,1.203-0.516,1.656c-0.65,1.546-1.298,2.71-1.832,3.312c-1.377,1.554-2.794,4.383-3.149,6.283
		c-0.202,1.08-1.519,2.499-3.436,3.997c-1.918,1.499-4.446,3.052-7.215,4.513c-2.768,1.46-5.777,2.803-8.531,3.77
		c-2.754,0.966-5.282,1.583-7.157,1.599c-1.512,0.013-3.536,0.42-5.612,1.085c-2.075,0.665-4.202,1.574-5.84,2.57
		c-2.291,1.394-3.779,2.6-4.695,3.998c-0.916,1.397-1.26,2.979-1.26,5.083c0,1.996-0.346,3.606-1.146,4.969
		s-2.054,2.462-3.894,3.598c-2.771,1.712-7.513,5.441-10.535,8.225c-1.512,1.392-3.851,3.076-6.413,4.684
		c-2.562,1.606-5.354,3.122-7.73,4.169s-4.797,2.381-6.813,3.713c-2.017,1.331-3.611,2.624-4.295,3.598
		c-0.541,0.771-1.392,1.558-2.462,2.228c-0.422,0.264-0.934,0.476-1.432,0.686c1.477,1.729,1.208,2.397-3.092,3.255
		c-4.267,0.852-5.84,2.348-6.757,6.511c-0.655,2.976-3.5,8.002-6.298,11.194c-2.799,3.192-6.951,10.144-9.219,15.421l-4.123,9.595
		l158.951-0.114l-5.038-7.082c-2.771-3.908-5.039-9.559-5.039-12.508c0-2.948-1.649-10.091-3.665-15.935
		c-4.211-12.209-4.646-18.501-1.374-19.818c1.362-0.548,1.001-0.999-0.916-1.085c-2.56-0.114-3.204-1.714-3.149-7.882
		c0.038-4.271-0.457-14.899-1.088-23.587c-1.115-15.355-1.353-15.963-8.303-22.731C654.314,452.935,651.428,449.114,651.106,447.591
		z"/>
	<path id="path4053" fill="#8CC056" d="M591.957,348.5c-1.341-0.499-2.452-0.989-4.008-1.485c-5.866-1.87-12.738-3.712-16.49-4.969
		c-4.72-1.58-9.104-2.68-13.456-3.427s-8.629-1.142-13.112-1.142c-3.13,0-5.546,0.037-7.501,0.171s-3.49,0.384-4.867,0.856
		c-1.377,0.474-2.612,1.153-4.008,2.171c-1.396,1.017-2.913,2.403-4.925,4.169c-2.291,2.012-5.189,4.049-8.017,5.769
		c-2.826,1.72-5.617,3.115-7.615,3.712c-2.144,0.641-4.125,1.599-5.726,2.685c-1.602,1.086-2.783,2.306-3.321,3.484
		c-0.539,1.179-2.658,3.035-5.496,5.254c-2.839,2.219-6.443,4.757-9.906,7.253c-2.168,1.562-3.962,2.938-5.783,4.341
		c0.392,2.265,1.803,4.067,5.439,7.368c8.568,7.777,8.394,10.794-0.63,10.794c-6.169,0-7.414,0.724-9.391,5.483
		c-2.509,6.042-3.146,6.275-9.905,3.712c-4.568-1.732-4.531-1.609,1.545,6.854c3.809,5.304,7.812,14.435,10.365,23.759l4.122,15.135
		l-13.056,11.88c-12.22,11.125-13.221,12.598-15.23,22.788c-1.91,9.681-2.615,10.908-6.527,10.908c-2.42,0-4.845-1.173-5.382-2.569
		c-0.562-1.462-2.437-2.129-4.466-1.6c-1.939,0.506-3.071,1.622-2.52,2.513c0.552,0.892,0.094,1.656-0.974,1.656
		c-1.067,0-1.947,2.057-1.947,4.569c0,2.55,1.064,4.569,2.405,4.569c1.345,0,3.448,3.946,4.752,9.023l2.348,9.081l4.008-4.684
		c3.906-4.528,4.252-4.584,10.593-1.941c4.766,1.986,8.152,5.515,12.425,12.965c3.233,5.637,6.426,10.28,7.042,10.28
		c0.617,0,2.982-1.799,5.269-3.941l4.122-3.883l-3.664-7.254c-2.039-3.986-3.308-7.666-2.806-8.167
		c2.68-2.673,12.374,2.104,15.918,7.824c3.19,5.148,4.96,6.282,10.078,6.282c5.115,0,6.441-0.815,7.386-4.568
		c1.046-4.156,2.033-4.569,10.88-4.569c8.289,0,10.239-0.692,13.112-4.626c3.307-4.528,3.507-4.596,11.967-2.057
		c4.742,1.424,9.993,3.914,11.624,5.54c0.433,0.432,0.237,0.532,0.515,0.857c0.498-0.21,1.01-0.422,1.432-0.686
		c1.07-0.67,1.921-1.457,2.462-2.228c0.684-0.974,2.278-2.267,4.295-3.598c2.017-1.332,4.438-2.666,6.813-3.713
		s5.168-2.562,7.73-4.169c2.562-1.607,4.901-3.292,6.413-4.684c3.022-2.783,7.764-6.513,10.535-8.225
		c1.84-1.136,3.094-2.235,3.894-3.598s1.146-2.973,1.146-4.969c0-2.104,0.344-3.686,1.26-5.083c0.916-1.398,2.404-2.604,4.695-3.998
		c1.638-0.996,3.765-1.905,5.84-2.57c2.076-0.665,4.101-1.072,5.612-1.085c1.875-0.016,4.403-0.633,7.157-1.599
		c2.754-0.967,5.764-2.31,8.531-3.77c2.769-1.461,5.297-3.014,7.215-4.513c1.917-1.498,3.233-2.917,3.436-3.997
		c0.355-1.9,1.772-4.729,3.149-6.283c0.534-0.603,1.182-1.767,1.832-3.312c0.191-0.453,0.355-1.069,0.516-1.656
		c-0.019-0.087-0.229-0.329-0.229-0.399c0-1.304-0.727-2.342-1.604-2.342c-0.876,0-2.616-3.732-3.894-8.281
		c-1.276-4.55-3.146-8.765-4.122-9.366c-1.041-0.643-0.712-1.765,0.744-2.685c1.869-1.182,1.554-1.571-1.202-1.6
		c-5.145-0.052-15.874-7.087-22.503-14.735c-4.463-5.147-6.848-6.387-11.738-6.225c-3.38,0.111-7.74,1.131-9.734,2.284
		c-3.602,2.083-3.648,2.115-0.057,2.17c3.343,0.052,3.309,0.275-0.63,3.027c-3.672,2.565-5.299,2.613-11.854,0.628
		c-6.138-1.858-6.911-2.52-4.064-3.541c2.745-0.985,0.837-2.358-8.704-6.168c-6.736-2.689-14.17-4.854-16.49-4.854
		c-4.479,0-15.588-10.096-13.456-12.222c0.693-0.692,7.893,1.469,15.976,4.797l14.658,6.054l11.395-5.597
		c14.468-7.115,19.296-8.434,22.102-6.111c2.734,2.264,17.693,0.524,17.693-2.056c0-2.473-5.033-6.41-12.54-9.767
		c-5.531-2.474-6.044-3.324-5.038-8.338c1.037-5.173,0.78-5.456-3.035-4.112c-4.842,1.705-21.081,1.818-22.731,0.171
		c-1.409-1.405,6.756-8.369,9.905-8.452C590.963,349.844,591.655,349.235,591.957,348.5z"/>
	<path id="path4060" fill="#CD9C62" d="M570.313,214.741c0.267,1.039,0.643,2.419,0.688,2.57c0.86,2.906,1.546,6.043,1.546,7.253
		c0,1.211,0.278,2.587,0.744,3.77c0.466,1.184,1.126,2.214,1.832,2.799s1.443,1.635,2.119,2.855s1.284,2.616,1.603,3.884
		c0.353,1.4,1.235,2.791,2.463,4.055c1.227,1.265,2.79,2.392,4.58,3.199c2.047,0.922,4.419,1.518,6.929,1.827
		s5.154,0.325,7.787,0.057c2.633-0.268,5.257-0.787,7.673-1.599c2.416-0.812,4.61-1.935,6.47-3.256
		c1.723-1.223,4.303-2.418,7.158-3.427c2.855-1.008,5.991-1.787,8.817-2.17c3.065-0.415,6.301-1.274,9.333-2.398
		s5.891-2.519,8.246-4.112c4.193-2.839,9.015-5.608,10.707-6.111c0.652-0.193,1.187-0.563,1.66-1.085
		c0.446-0.491,0.804-1.106,1.031-1.771c-2.015-1.141-3.493-2.465-3.493-3.77c0-3.588-3.435-3.575-4.81,0
		c-1.55,4.028-11.296,3.235-20.671-1.656c-6.941-3.622-9.139-3.947-16.146-2.456c-6.325,1.346-9.881,1.044-15.918-1.257
		c-7.105-2.706-8.376-2.699-14.716-0.057c-3.813,1.589-8.21,2.376-9.791,1.771C575.179,213.283,572.888,213.852,570.313,214.741z"/>
	<path id="path4155" fill="#7462CD" d="M427.971,416.92c-0.068-0.043-0.103-0.071-0.172-0.114c-1.972-1.233-3.953-2.402-4.924-3.026
		c-1.114-0.716-2.281-1.223-3.493-1.6c-0.016-0.005-0.259-0.266-0.287-0.285c-2.564,2.796-4.581,5.359-4.581,6.339
		c0,1.428-0.778,3.076-1.718,3.655c-0.94,0.58-2.595,5.494-3.722,10.909c-1.718,8.254-2.822,10.037-6.757,11.022
		c-4.529,1.134-4.557,1.296-1.431,4.74c1.806,1.99,5.601,3.599,8.589,3.599c4.969,0,5.27-0.418,4.18-5.369
		c-0.931-4.226,0.084-7.18,4.924-14.164C422.136,427.497,425.221,422.119,427.971,416.92z"/>
	<path id="path3139" fill="#D1C370" d="M519.483,88.899c-1.099,0.138-2.432,0.601-4.294,1.371c-5.941,2.455-6.072,3.331-2.52,15.706
		c0.871,3.034-0.268,4.667-5.439,7.71c-7.209,4.242-7.963,6.065-3.837,9.481c1.512,1.251,2.749,3.42,2.749,4.854
		c0,2.107-2.111,2.373-10.994,1.371c-12.081-1.363-13.183-0.219-8.245,8.396c3.824,6.672,3.33,9.138-1.832,9.138
		c-2.52,0-4.581,0.497-4.581,1.143c0,0.645,3.298,6.37,7.329,12.736c7.486,11.822,8.74,15.364,5.497,15.364
		c-1.008,0-1.833-1.338-1.833-2.913c0-1.991-1.053-2.485-3.492-1.713c-1.931,0.611-4.047,0.247-4.695-0.799
		c-0.648-1.046-3.984-1.885-7.387-1.885s-8.164-0.771-10.65-1.713c-5.039-1.912-7.997,0.393-11.909,9.538
		c-2.54,5.936-1.384,12.216,4.008,21.703c4.831,8.5,3.015,10.436-5.726,5.997c-3.767-1.913-7.555-3.772-8.417-4.17
		c-1.414-0.649-0.54,6.392,1.832,14.793c0.497,1.759,2.461,3.198,4.409,3.198c4.498,0,4.479,0.884-0.458,7.938
		c-5.829,8.329-9.748,10.164-16.261,6.568c-0.817,0.799-1.757,1.437-2.634,2.17c0.347,0.213,0.917,0.358,0.917,0.628
		c0,0.268-1.167,3.906-2.634,8.054c-1.467,4.146-2.103,7.538-1.374,7.538s4.463-2.138,8.303-4.74
		c3.839-2.602,7.313-4.471,7.672-4.111c0.36,0.358,1.233,5.08,1.947,10.451l1.259,9.767l-5.268-1.143
		c-4.515-0.971-5.74-0.354-8.303,4.169c-2.681,4.733-2.748,5.599-0.286,8.054c2.461,2.454,2.415,3.384-0.63,8.566
		c-2.934,4.993-4.208,5.685-9.047,4.912c-3.101-0.495-8.46-0.24-11.91,0.571l-6.298,1.484l7.329,0.229
		c8.758,0.293,19.88,8.424,15.403,11.251c-1.423,0.898-4.432,1.642-6.699,1.656c-6.094,0.042-5.062,2.536,4.409,10.852
		c4.677,4.106,7.508,7.482,6.299,7.482c-1.209,0-1.711,0.822-1.088,1.827c0.623,1.005,2.634,1.828,4.466,1.828
		c3.795,0,8.635-4.776,5.84-5.769c-0.983-0.35,3.992-5.433,11.051-11.309c7.059-5.876,13.254-10.253,13.799-9.709
		c1.194,1.19-9.912,14.936-17.062,21.132c-3.132,2.714-4.28,4.745-2.92,5.197c3.833,1.274,2.434,5.885-2.462,8.109
		c-3.763,1.71-4.451,3.047-3.55,6.625c0.791,3.143-0.051,5.7-2.806,8.625c-3.746,3.977-3.732,4.25-0.515,6.168
		c3.191,1.903,3.117,2.175-0.859,5.54c-3.169,2.682-3.871,4.675-2.978,8.224c1.03,4.096,0.5,4.835-4.18,5.769
		c-6.548,1.307-11.392,7.665-7.615,10.052c1.353,0.855,3.905,1.584,5.668,1.6c4.024,0.035,4.062,1.531,0.115,5.883
		c-2.938,3.238-2.889,3.52,0.916,4.512c5.975,1.559,4.93,4.765-4.237,13.193c-1.421,1.307-2.494,2.55-3.665,3.826
		c0.027,0.02,0.271,0.281,0.286,0.285c1.212,0.377,2.379,0.884,3.493,1.6c0.971,0.624,2.953,1.794,4.924,3.027
		c0.068,0.043,0.103,0.07,0.171,0.114c6.566-12.41,10.255-23.245,6.871-23.245c-1.087,0-1.927-2.673-1.832-5.94
		c0.134-4.622,1.992-7.534,8.303-13.078c4.459-3.918,8.539-6.675,9.104-6.111s-0.822,4.232-3.092,8.167
		c-2.572,4.457-3.604,8.435-2.806,10.509c1.209,3.143,1.482,3.08,5.439-0.628c5.451-5.107,6.7-4.917,6.7,0.856v4.74l5.955-3.712
		c4.103-2.561,7.022-6.587,9.391-12.965c3.939-10.615,7.689-12.501,5.896-2.97c-0.385,2.047-0.398,3.485-0.172,4.797
		c1.822-1.403,3.617-2.778,5.783-4.34c3.464-2.497,7.068-5.035,9.906-7.254c2.839-2.218,4.958-4.074,5.497-5.254
		c0.538-1.179,1.72-2.398,3.321-3.484c1.601-1.085,3.582-2.043,5.726-2.685c1.997-0.597,4.789-1.992,7.615-3.712
		c2.827-1.72,5.725-3.757,8.017-5.769c2.012-1.766,3.528-3.152,4.924-4.169c1.396-1.017,2.632-1.697,4.009-2.171
		c1.377-0.473,2.912-0.722,4.867-0.856c1.954-0.134,4.371-0.171,7.501-0.171c4.483,0,8.761,0.395,13.112,1.143
		c4.352,0.747,8.735,1.846,13.456,3.426c3.752,1.257,10.624,3.099,16.49,4.97c1.556,0.496,2.667,0.985,4.008,1.484
		c0.075-0.182,0.286-0.314,0.286-0.514c0-2.374,14.858-2.378,21.129,0c7.059,2.677,14.108-3.01,19.182-15.478
		c3.633-8.927,5.149-10.571,13.8-14.793c9.307-4.541,14.261-10.069,10.192-11.422c-2.564-0.853,2.756-11.327,7.844-15.421
		c2.159-1.736,5.337-3.176,7.101-3.198c4.34-0.055,4.107-5.593-0.286-6.739c-1.931-0.504-4.017-2.957-4.638-5.426
		c-1.272-5.057,2.16-10.674,12.597-20.675c5.454-5.228,6.527-7.577,6.527-13.821c0-5.857-1.095-8.57-5.096-12.394
		c-2.827-2.701-6.9-4.912-9.047-4.912c-3.569,0-7.22-1.139-9.849-2.627c-0.228,0.664-0.585,1.279-1.031,1.771
		c-0.474,0.521-1.008,0.892-1.66,1.085c-1.693,0.503-6.514,3.272-10.708,6.111c-2.354,1.594-5.213,2.988-8.245,4.112
		s-6.268,1.983-9.333,2.398c-2.827,0.383-5.962,1.162-8.818,2.171c-2.855,1.008-5.435,2.203-7.157,3.426
		c-1.859,1.321-4.054,2.444-6.47,3.256c-2.417,0.812-5.04,1.331-7.673,1.6c-2.633,0.268-5.277,0.252-7.787-0.058
		s-4.882-0.905-6.929-1.827c-1.79-0.808-3.354-1.935-4.581-3.198c-1.227-1.265-2.109-2.654-2.462-4.056
		c-0.318-1.268-0.928-2.663-1.604-3.884s-1.412-2.271-2.118-2.855s-1.367-1.615-1.832-2.799c-0.466-1.183-0.744-2.559-0.744-3.769
		c0-1.211-0.686-4.348-1.547-7.254c-0.045-0.151-0.42-1.531-0.687-2.57c-1.601,0.554-3.27,1.123-4.925,1.999
		c-7.47,3.953-7.972,3.963-10.249,0.856c-2.254-3.073-2.616-2.967-6.757,1.429c-4.325,4.593-11.572,6.025-16.032,3.198
		c-3.191-2.023-0.743-4.812,8.589-9.71c7.939-4.166,8.059-4.324,3.206-4.911c-8.198-0.992-5.767-3.786,4.467-5.141
		c6.834-0.904,10.79-2.588,13.971-5.996l4.409-4.741l-6.757-0.628c-6.067-0.517-6.671-1.003-5.496-4.569
		c0.723-2.194,1.272-6.133,1.202-8.795c-0.099-3.729,1.146-5.365,5.439-7.139c3.066-1.267,10.444-5.449,16.434-9.31
		c5.988-3.861,12.711-7.104,14.944-7.139s6.127-1.19,8.646-2.627c4.083-2.329,4.183-2.656,0.916-2.742
		c-2.597-0.068-1.228-1.544,4.695-5.083c4.598-2.747,11.322-8.297,14.944-12.336l6.585-7.368l-3.607-4.969l-3.607-4.912l5.039-4.397
		l5.096-4.341l-5.726-2.97c-5.48-2.827-5.823-2.788-6.929,0.685c-1.042,3.277-2.799,3.655-17.464,3.655
		c-14.54,0-16.671-0.443-20.098-4.112c-6.703-7.177-29.526-4.147-31.722,4.226c-0.506,1.928-2.277,3.541-3.951,3.541
		c-2.212,0-2.737-1.049-1.89-3.712c1.769-5.557-4.316-7.093-8.359-2.113c-4.343,5.349-4.84,5.074-6.241-3.199
		c-0.666-3.931-2.779-8.55-4.695-10.28C522.516,89.361,521.315,88.668,519.483,88.899z"/>
	<path id="path3100" fill="#D17070" d="M377.007,387.279c-3.482,0.014-7.296,0.995-8.475,2.171
		c-2.793,2.786-0.645,8.617,2.462,6.682c5.175-3.224,6.899-2.138,6.871,4.513c-0.015,3.68-0.792,7.906-1.718,9.366
		c-3.043,4.798-0.021,5.624,7.215,1.941l7.1-3.655l-3.55-10.509C383.488,387.676,383.087,387.257,377.007,387.279z"/>
	<g id="g2027" transform="matrix(1.832292,0,0,1.827615,-85.75787,-469.873)">
		<path id="path1993" fill="#618EBD" d="M281.538,385.613c0.479-0.401,0.992-0.751,1.437-1.188
			c-0.944-0.523-1.922-1.141-3.125-2.094c-2.768-2.192-3.807-3.708-3.469-5c0.267-1.02,0.076-1.844-0.406-1.844
			c-0.483,0-0.778-3.676-0.656-8.156c0.234-8.62-1.179-11.351-3.375-6.531c-0.999,2.192-1.934,2.547-8.438,3.156
			c-8.701,0.815-10.503,2.207-7.031,5.468c2.017,1.895,3.088,2.134,6.469,1.562c3.769-0.636,4.071-0.488,4.688,1.969
			c0.468,1.863,0.17,2.988-1,3.843c-1.472,1.077-1.149,1.676,2.844,5.594c3.664,3.596,4.751,4.172,5.938,3.187
			C276.428,384.739,280.385,384.902,281.538,385.613z"/>
		<path id="path3157" fill="#618EBD" d="M459.654,198.501c-1.066,0-1.625,0.857-1.625,2.594c0,2.108-0.387,2.539-1.969,2.125
			c-1.08-0.282-2.458,0.084-3.062,0.812c-1.073,1.294-0.341,1.579,5.781,2.313c0.697,0.083,1.25-0.933,1.25-2.281
			c0-1.33,0.292-3.13,0.625-4C461.052,199.025,460.708,198.501,459.654,198.501z"/>
		<path id="path3153" fill="#618EBD" d="M462.217,208.907c-0.8,0.027-1.502,1.079-2.188,3.156l-1.218,3.687l-4.907-0.594
			c-4.233-0.501-4.875-0.328-4.875,1.219c0,0.981,1.125,2.389,2.5,3.125c1.375,0.736,2.5,1.77,2.5,2.312
			c0,0.542,0.929,0.151,2.063-0.875c1.764-1.596,2.209-1.656,3-0.406c0.508,0.803,0.93,2.03,0.938,2.75
			c0.009,0.72,0.45,1.059,1,0.719c0.55-0.34,1-1.58,1-2.75c0-1.17,0.941-3.149,2.094-4.375c1.881-2.002,1.958-2.491,0.75-4.969
			C463.888,209.886,463.016,208.88,462.217,208.907z"/>
		<path id="path3147" fill="#618EBD" d="M386.873,281.876c-1.525,0.048-2.318,0.702-0.875,1.594
			c0.887,0.548,0.793,1.641-0.375,4.437l-1.531,3.719l3.032-0.656c2.554-0.561,3.135-0.317,3.594,1.438
			c0.572,2.189,2.75,2.813,3.812,1.094c0.34-0.55,0.118-1-0.5-1c-0.618,0-1.024-1.238-0.907-2.75
			c0.387-4.952-0.053-6.017-3.031-7.25C388.953,282.029,387.788,281.847,386.873,281.876z"/>
		<path id="path3143" fill="#618EBD" d="M397.748,292.532c-0.058,0.009-0.113,0.019-0.156,0.063
			c-0.259,0.259-0.224,1.474,0.094,2.687c0.578,2.21,1.837,2.865,2.719,1.437C400.923,295.88,398.608,292.396,397.748,292.532z"/>
		<path id="path3141" fill="#618EBD" d="M383.123,298.501c-3.063,0-3.197,1.275-0.344,3.156c3.003,1.981,5.25,2.371,5.25,0.906
			C388.029,301.01,384.994,298.501,383.123,298.501z"/>
		<path id="path3137" fill="#618EBD" d="M284.279,307.469l-3.875,1.625c-2.133,0.879-4.775,2.4-5.875,3.406
			c-1.1,1.006-3.252,2.152-4.781,2.531c-2.147,0.533-2.649,1.108-2.188,2.563c0.547,1.724-0.024,1.896-6.719,1.968
			c-4.025,0.044-6.721,0.305-6,0.594c1.033,0.413,0.982,0.917-0.281,2.312c-1.498,1.656-1.334,1.866,2.438,3.375
			c2.219,0.888,5.677,3.431,7.688,5.656c3.901,4.318,5.673,4.654,6.188,1.156c0.201-1.369,1.033-2.156,2.25-2.156
			c2.378,0,2.486-1.575,0.219-2.844c-1.489-0.833-1.345-1.25,1.25-3.531c1.613-1.417,3.695-2.577,4.625-2.594
			c1.911-0.036,3.6-2.031,1.719-2.031c-0.804,0-0.659-0.604,0.406-1.781c0.884-0.977,1.91-3.675,2.281-6L284.279,307.469z"/>
		<path id="path3135" fill="#618EBD" d="M259.685,329.844c-0.12,0.005-0.246,0.044-0.375,0.094
			c-0.795,0.305-2.514,0.562-3.844,0.562c-3.447,0-2.996,1.51,1.312,4.437c5.37,3.649,6.274,3.396,5.031-1.5
			C261.167,330.904,260.523,329.81,259.685,329.844z"/>
		<path id="path3133" fill="#618EBD" d="M253.404,339.001c-2.332,0.191-3.084,1.902-1.344,4c1.557,1.876,2.403,1.886,3.969,0
			c0.685-0.825,1.976-1.5,2.844-1.5c2.576,0-0.011-1.699-3.625-2.375C254.553,338.996,253.942,338.956,253.404,339.001z"/>
		<path id="path3131" fill="#618EBD" d="M238.685,348.501c-2.353-0.056-4.748,0.32-5.188,1.031
			c-1.945,3.148,2.411,4.885,8.281,3.312c2.598-0.696,3.004-2.861,0.688-3.75C241.511,348.728,240.097,348.534,238.685,348.501z"/>
		<path id="path3129" fill="#618EBD" d="M237.654,360.501c-0.892,0-1.625,0.675-1.625,1.5c0,0.825,0.167,1.5,0.375,1.5
			c0.208,0,0.94-0.675,1.625-1.5C239.049,360.772,238.983,360.501,237.654,360.501z"/>
		<path id="path3127" fill="#618EBD" d="M241.529,364.001c-0.344,0.05-0.685,0.254-1.094,0.594c-1.193,0.99-1.151,1.366,0.344,2.5
			c2.055,1.56,4.25,1.801,4.25,0.469c0-0.511-0.71-1.648-1.594-2.531C242.656,364.253,242.102,363.918,241.529,364.001z"/>
		<path id="path3124" fill="#618EBD" d="M238.404,369.501c-0.659,0.015-1.73,1.45-2.75,4c-2.906,7.261-1.474,9.388,1.75,2.594
			c0.892-1.879,1.625-4.12,1.625-5C239.029,370.002,238.799,369.491,238.404,369.501z"/>
		<path id="path3122" fill="#618EBD" d="M245.248,370.157c-0.352,0.01-0.76,0.058-1.219,0.125c-1.679,0.246-3,1.037-3,1.812
			c0,1.651,0.136,1.662,3.437,0.407C247.542,371.331,247.712,370.09,245.248,370.157z"/>
		<path id="path3120" fill="#618EBD" d="M249.279,373.626c-2.248-0.051-4.812,1.251-4.812,2.875c0,1.486,0.514,1.795,2.188,1.375
			c1.197-0.301,2.478-0.018,2.875,0.625c0.482,0.78,1.137,0.372,1.938-1.187c0.961-1.873,0.927-2.499-0.156-3.156
			C250.738,373.809,250.028,373.642,249.279,373.626z"/>
		<path id="path3118" fill="#618EBD" d="M241.092,376.063c-0.499-0.057-1.293,0.569-1.875,1.5c-1.389,2.224-0.004,2.614,1.75,0.5
			c0.644-0.776,0.779-1.618,0.313-1.906C241.221,376.121,241.163,376.071,241.092,376.063z"/>
		<path id="path3114" fill="#618EBD" d="M263.217,393.907c-0.509,0.067-1.075,0.416-1.594,1.125
			c-0.778,1.064-1.196,2.269-0.938,2.688c0.837,1.355,3.124,0.807,3.781-0.906C265.171,394.978,264.336,393.759,263.217,393.907z"/>
		<path id="path3112" fill="#618EBD" d="M253.998,416.501c-3.829,0-8.231,1.767-7.469,3c0.703,1.138,3.842,1.269,8.313,0.375
			C258.698,419.105,258.046,416.501,253.998,416.501z"/>
		<path id="path3110" fill="#618EBD" d="M264.029,422.5c-0.402,0-1.271,0.61-1.906,1.375c-0.915,1.102-0.579,1.825,1.625,3.468
			c2.987,2.229,6.281,2.803,6.281,1.094C270.029,427.285,265.196,422.5,264.029,422.5z"/>
		<path id="path3106" fill="#618EBD" d="M274.592,433.001c-2.209,0.112-4.563,0.779-4.563,1.625c0,0.481-0.787,0.867-1.75,0.875
			c-1.437,0.012-1.492,0.191-0.312,0.937c1.184,0.75,1.226,1.179,0.156,2.469c-1.157,1.394-0.98,1.442,1.813,0.469
			c2.268-0.791,3.511-0.795,4.469,0c1.014,0.841,1.59,0.517,2.437-1.344c0.831-1.824,0.807-2.54-0.094-2.906
			c-0.659-0.268-0.319-0.534,0.781-0.594c1.768-0.097,1.804-0.211,0.344-1.063C277.178,433.064,275.917,432.933,274.592,433.001z"/>
		<path id="path3104" fill="#618EBD" d="M256.56,453.72c-0.118-0.108-0.468,0.32-1.125,1.219c-1.607,2.197-1.783,3.562-0.5,3.562
			c0.486,0,1.119-1.248,1.406-2.75C256.586,454.474,256.678,453.827,256.56,453.72z"/>
		<path id="path3102" fill="#618EBD" d="M274.935,455.969c-0.491-0.008-2.603,0.847-5.125,2.125c-4.787,2.426-5.047,2.743-3,3.5
			c2.432,0.9,3.053,2.907,0.906,2.907c-1.968,0-6.009,4.671-5.188,6c0.977,1.582,4.923-2.173,9.156-8.719
			c1.85-2.861,3.344-5.439,3.344-5.75C275.029,455.993,275.005,455.971,274.935,455.969z"/>
		<path id="path3098" fill="#618EBD" d="M293.56,470.845c-0.233,0.042-0.57,0.278-1.062,0.687c-1.236,1.026-1.286,1.437-0.25,2.094
			c1.784,1.132,1.781,1.141,1.781-1.25C294.029,471.25,293.95,470.773,293.56,470.845z"/>
		<path id="path3096" fill="#618EBD" d="M286.967,488.594c-0.432,0.04-0.823,0.542-1.5,1.406c-1.118,1.426-1.406,3.121-0.969,5.938
			c0.972,6.256,3.539,8.26,6.156,4.813c2.087-2.749,1.611-6.901-1.125-9.969C288.139,489.223,287.522,488.544,286.967,488.594z"/>
	</g>
	<path id="rect2003" fill="#BAB68C" d="M303.486,436.968c-1.247,0.117-2.971,1.512-6.47,4.626
		c-3.677,3.273-6.975,8.054-7.329,10.566c-0.426,3.019-1.776,4.451-3.894,4.283c-1.763-0.14-3.207,0.834-3.207,2.171
		c0,2.592-3.342,5.404-4.752,3.997c-0.465-0.464-0.059-2.926,0.916-5.482c1.004-2.634,1.13-6.877,0.286-9.823l-1.489-5.197
		l-2.004,5.025c-2.446,6.092-3.315,6.192-7.73,0.914c-1.965-2.349-3.458-3.123-3.493-1.771c-0.044,1.711-1.835,2.01-6.47,1.143
		c-5.173-0.969-6.413-0.605-6.413,1.771c0,3.401-1.587,3.659-8.074,1.199c-3.85-1.46-4.993-1.141-6.585,1.827
		c-1.359,2.533-3.87,3.599-8.417,3.599c-3.655,0-5.998,0.721-5.382,1.713c0.598,0.965,0.034,3.533-1.26,5.654
		c-2.093,3.432-1.771,4.282,2.92,8.053c6.045,4.86,5.031,9.243-1.775,7.539c-2.707-0.678-4.409-0.321-4.409,0.972
		c0,1.342-1.904,1.722-5.382,1.027c-5.195-1.036-17.096,2.529-19.067,5.712c-2.417,3.9,6.439,8.521,20.098,10.509
		c10.212,1.485,22.674,6.024,22.674,8.224c0,0.816-2.326,1.996-5.21,2.628c-3.167,0.693-6.095,2.998-7.386,5.825
		c-1.7,3.721-3.104,4.487-6.871,3.77c-5.878-1.121-11.681,4.119-11.681,10.565c0,3.351-0.977,4.569-3.665,4.569
		c-5.415,0-4.45,2.888,1.833,5.482c3.023,1.249,5.497,2.943,5.497,3.827c0,4.198-17.015-0.612-21.586-6.111
		c-1.297-1.56-3.919-2.442-5.841-1.941c-1.921,0.501-6.155-0.39-9.39-1.999c-7.335-3.65-7.158-3.654-7.158,0.742
		c0,4.036-2.849,4.525-9.963,1.827c-5.375-2.038-5.894-4.775-1.833-9.252c2.628-2.896,1.808-3.425-11.566-7.024
		c-16.826-4.529-22.19-4.806-23.534-1.314c-0.537,1.396-3.397,3.008-6.356,3.599c-5.084,1.015-5.382,1.588-5.382,10.166
		c0,4.992,0.825,9.603,1.833,10.224c3.002,1.85,2.079,9.701-1.375,11.708c-3.035,1.763-2.989,1.889,0.115,1.941
		c5.309,0.09,17.75,7.172,17.75,10.109c0,2.087-2.51,2.741-10.994,2.741h266.599l0.516-9.595
		c0.675-12.358,2.144-19.038,3.722-16.849c0.687,0.953,2.909,2.663,4.924,3.77c4.372,2.4,5.912,12.485,2.52,16.562
		c-1.996,2.398-1.676,2.713,2.176,2.171c3.969-0.559,4.469-1.481,4.237-7.939c-0.145-4.021-1.48-11.422-2.978-16.448l-2.749-9.138
		l-12.139,0.285c-6.672,0.155-12.139-0.462-12.139-1.37c0-0.909,1.031-1.743,2.29-1.828c1.26-0.085,5.046-3.341,8.417-7.253
		c5.471-6.351,5.853-7.412,3.378-9.881c-1.525-1.521-3.347-5.476-4.065-8.738c-0.719-3.263-2.504-7.735-3.951-9.938
		c-1.447-2.203-2.821-8.795-3.035-14.679c-0.453-12.442-4.191-17.475-16.205-21.702c-12.529-4.41-38.134-2.899-38.134,2.228
		c0,1.382-0.825,2.513-1.833,2.513s-1.832-1.638-1.832-3.599c0-1.96-1.443-4.4-3.207-5.426c-1.9-1.104-2.254-1.852-0.859-1.885
		c2.473-0.058,1.364-3.205-3.55-9.709C305.133,437.546,304.455,436.877,303.486,436.968z"/>
</g>
</svg>
